<svg xmlns="http://www.w3.org/2000/svg" xmlns:xlink="http://www.w3.org/1999/xlink" xmlns:lucid="lucid" width="1772" height="1280"><g transform="translate(-54 -20)" lucid:page-tab-id="0_0"><path d="M0 0h1870.87v1322.83H0z" fill="#fff"/><path d="M161.35 165.8c.85-3.2 4.23-5.8 7.54-5.8h203.34c3.32 0 5.3 2.6 4.46 5.8l-28.9 108.4c-.86 3.2-4.24 5.8-7.56 5.8H136.9c-3.32 0-5.32-2.6-4.46-5.8z" stroke="#3a414a" fill="#fff"/><use xlink:href="#a" transform="matrix(1,0,0,1,135.89229815253003,165) translate(28.91858024691359 45.27777777777778)"/><use xlink:href="#b" transform="matrix(1,0,0,1,135.89229815253003,165) translate(81.88154320987655 45.27777777777778)"/><use xlink:href="#c" transform="matrix(1,0,0,1,135.89229815253003,165) translate(159.5975925925926 45.27777777777778)"/><use xlink:href="#d" transform="matrix(1,0,0,1,135.89229815253003,165) translate(20.03586419753085 71.94444444444446)"/><use xlink:href="#e" transform="matrix(1,0,0,1,135.89229815253003,165) translate(87.87537037037036 71.94444444444446)"/><use xlink:href="#f" transform="matrix(1,0,0,1,135.89229815253003,165) translate(129.85067901234567 71.94444444444446)"/><use xlink:href="#g" transform="matrix(1,0,0,1,135.89229815253003,165) translate(155.71487654320987 71.94444444444446)"/><path d="M465.78 165.8c.85-3.2 4.23-5.8 7.54-5.8h203.36c3.3 0 5.3 2.6 4.45 5.8l-28.9 108.4c-.86 3.2-4.24 5.8-7.55 5.8H441.32c-3.3 0-5.3-2.6-4.45-5.8z" stroke="#3a414a" fill="#fff"/><use xlink:href="#h" transform="matrix(1,0,0,1,440.32473058496254,165) translate(26.128456790123476 31.52777777777778)"/><use xlink:href="#i" transform="matrix(1,0,0,1,440.32473058496254,165) translate(107.48648148148149 31.52777777777778)"/><use xlink:href="#j" transform="matrix(1,0,0,1,440.32473058496254,165) translate(150.69635802469136 31.52777777777778)"/><use xlink:href="#k" transform="matrix(1,0,0,1,440.32473058496254,165) translate(18.54203703703704 58.19444444444445)"/><use xlink:href="#l" transform="matrix(1,0,0,1,440.32473058496254,165) translate(64.15932098765433 58.19444444444445)"/><use xlink:href="#m" transform="matrix(1,0,0,1,440.32473058496254,165) translate(113.41858024691359 58.19444444444445)"/><use xlink:href="#n" transform="matrix(1,0,0,1,440.32473058496254,165) translate(200.94944444444445 58.19444444444445)"/><use xlink:href="#o" transform="matrix(1,0,0,1,440.32473058496254,165) translate(68.88771604938272 84.86111111111111)"/><use xlink:href="#p" transform="matrix(1,0,0,1,440.32473058496254,165) translate(115.73956790123457 84.86111111111111)"/><path d="M751.18 165.8c.86-3.2 4.24-5.8 7.55-5.8h203.35c3.32 0 5.3 2.6 4.46 5.8l-28.9 108.4c-.87 3.2-4.24 5.8-7.56 5.8H726.73c-3.3 0-5.3-2.6-4.45-5.8z" stroke="#3a414a" fill="#fff"/><use xlink:href="#q" transform="matrix(1,0,0,1,725.7301359903679,165) translate(19.714876543209876 59.02777777777778)"/><use xlink:href="#r" transform="matrix(1,0,0,1,725.7301359903679,165) translate(86.31981481481482 59.02777777777778)"/><use xlink:href="#s" transform="matrix(1,0,0,1,725.7301359903679,165) translate(134.40623456790124 59.02777777777778)"/><use xlink:href="#t" transform="matrix(1,0,0,1,725.7301359903679,165) translate(194.83833333333334 59.02777777777778)"/><path d="M953.1 220h52.13" stroke="#3a414a" fill="none"/><path d="M953.1 220.5h-.63l.26-1h.38z" stroke="#3a414a" stroke-width=".05" fill="#3a414a"/><path d="M1020 220l-14.27 4.64v-9.28z" stroke="#3a414a" fill="#3a414a"/><path d="M1036.6 165.8c.84-3.2 4.22-5.8 7.54-5.8h203.35c3.3 0 5.3 2.6 4.44 5.8l-28.9 108.4c-.86 3.2-4.24 5.8-7.55 5.8h-203.36c-3.32 0-5.3-2.6-4.46-5.8z" stroke="#3a414a" fill="#fff"/><use xlink:href="#h" transform="matrix(1,0,0,1,1011.1355413957733,165) translate(59.22104938271605 59.02777777777778)"/><use xlink:href="#u" transform="matrix(1,0,0,1,1011.1355413957733,165) translate(140.57907407407407 59.02777777777778)"/><path d="M1238.5 220h52.14" stroke="#3a414a" fill="none"/><path d="M1238.52 220.5h-.65l.27-1h.38z" stroke="#3a414a" stroke-width=".05" fill="#3a414a"/><path d="M1305.4 220l-14.26 4.64v-9.28z" stroke="#3a414a" fill="#3a414a"/><path d="M1322 165.8c.85-3.2 4.23-5.8 7.54-5.8h203.35c3.3 0 5.3 2.6 4.45 5.8l-28.9 108.4c-.87 3.2-4.24 5.8-7.56 5.8h-203.36c-3.3 0-5.3-2.6-4.45-5.8z" stroke="#3a414a" fill="#fff"/><use xlink:href="#h" transform="matrix(1,0,0,1,1296.5409468011787,165) translate(37.208703703703705 31.52777777777778)"/><use xlink:href="#v" transform="matrix(1,0,0,1,1296.5409468011787,165) translate(118.56672839506172 31.52777777777778)"/><use xlink:href="#w" transform="matrix(1,0,0,1,1296.5409468011787,165) translate(183.9370987654321 31.52777777777778)"/><use xlink:href="#x" transform="matrix(1,0,0,1,1296.5409468011787,165) translate(25.98030864197529 58.19444444444445)"/><use xlink:href="#y" transform="matrix(1,0,0,1,1296.5409468011787,165) translate(65.36302469135802 58.19444444444445)"/><use xlink:href="#z" transform="matrix(1,0,0,1,1296.5409468011787,165) translate(113.51117283950616 58.19444444444445)"/><use xlink:href="#A" transform="matrix(1,0,0,1,1296.5409468011787,165) translate(166.53586419753086 58.19444444444445)"/><use xlink:href="#B" transform="matrix(1,0,0,1,1296.5409468011787,165) translate(191.22722222222222 58.19444444444445)"/><use xlink:href="#C" transform="matrix(1,0,0,1,1296.5409468011787,165) translate(29.474135802469142 84.86111111111111)"/><use xlink:href="#l" transform="matrix(1,0,0,1,1296.5409468011787,165) translate(75.0296913580247 84.86111111111111)"/><use xlink:href="#D" transform="matrix(1,0,0,1,1296.5409468011787,165) translate(124.28895061728396 84.86111111111111)"/><path d="M249.86 323.7c2.6-2.04 6.82-2.04 9.42 0l66.68 52.6c2.6 2.04 2.6 5.36 0 7.4l-66.68 52.6c-2.6 2.04-6.82 2.04-9.42 0l-66.7-52.6c-2.6-2.04-2.6-5.36 0-7.4z" stroke="#3a414a" fill="#fff"/><use xlink:href="#E" transform="matrix(1,0,0,1,183.4598657200976,325) translate(23.16549382716049 59.02777777777778)"/><path d="M253.68 281v19.68c0 .24.2.44.44.44.25 0 .45.2.45.44v3.8" stroke="#3a414a" fill="none"/><path d="M254.18 281h-1v-.5h1z" stroke="#3a414a" stroke-width=".05" fill="#3a414a"/><path d="M254.57 320.12l-4.64-14.26h9.27z" stroke="#3a414a" fill="#3a414a"/><path d="M390.08 374.07l-.87 3.22-2.33 2.33-3.22.87h-54.8v-1h54.66l2.85-.77 1.96-1.96.78-2.84v-63.26h1zm44.34-153.57h-38.77l-2.84.77-1.95 1.96-.77 2.84v63.26h-1v-63.4l.87-3.22 2.34-2.33 3.2-.87h38.92z" stroke="#3a414a" stroke-width=".05" fill="#3a414a"/><path d="M328.87 380.5h-.5l.05-.15-.16-.85h.6z" fill="#3a414a"/><path d="M328.9 380.52h-.57l.06-.17-.17-.88h.66zm-.6-1l.15.83-.05.13h.44v-.96z" stroke="#3a414a" stroke-width=".05" fill="#3a414a"/><path d="M449.2 220l-14.28 4.64v-9.28z" fill="#3a414a"/><path d="M450.8 220l-16.38 5.32v-10.64zm-15.38 3.95l12.15-3.95-12.15-3.95z" stroke="#3a414a" stroke-width=".05" fill="#3a414a"/><use xlink:href="#F" transform="matrix(1,0,0,1,374.2723592832401,289.3333333333333) translate(0 14.222222222222223)"/><path d="M106.87 373.93l.77 2.84 1.97 1.96 2.84.77h67.84v1H112.3l-3.2-.87-2.35-2.34-.88-3.23v-46.2h1zM130 220.5h-17.56l-2.83.77-1.96 1.96-.77 2.84v80.47h-1v-80.6l.88-3.23 2.34-2.33 3.2-.87H130z" stroke="#3a414a" stroke-width=".05" fill="#3a414a"/><path d="M180.72 379.65l.16.85h-.6v-1h.5z" fill="#3a414a"/><path d="M180.74 379.65l.17.88h-.66v-1.05h.56zm-.45-.13v.96h.55l-.16-.83.03-.13z" stroke="#3a414a" stroke-width=".05" fill="#3a414a"/><path d="M144.76 220l-14.27 4.64v-9.28z" fill="#3a414a"/><path d="M146.37 220L130 225.32v-10.64zM131 223.95l12.14-3.95-12.15-3.95z" stroke="#3a414a" stroke-width=".05" fill="#3a414a"/><use xlink:href="#G" transform="matrix(1,0,0,1,94.57235652685226,306.5365220110984) translate(0 14.222222222222223)"/><path d="M554.3 323.7c2.6-2.04 6.8-2.04 9.4 0l66.7 52.6c2.6 2.04 2.6 5.36 0 7.4l-66.7 52.6c-2.6 2.04-6.8 2.04-9.4 0l-66.7-52.6c-2.6-2.04-2.6-5.36 0-7.4z" stroke="#3a414a" fill="#fff"/><use xlink:href="#E" transform="matrix(1,0,0,1,487.8922981525301,325) translate(23.16549382716049 59.02777777777778)"/><path d="M685 374.07l-.87 3.22-2.34 2.33-3.23.87H633.3v-1h45.13l2.84-.77 1.96-1.96.77-2.84v-63.26h1zm34.83-153.57h-29.26l-2.84.77-1.96 1.96-.77 2.84v63.26h-1v-63.4l.87-3.22 2.34-2.33 3.23-.87h29.4z" stroke="#3a414a" stroke-width=".05" fill="#3a414a"/><path d="M633.3 380.5h-.5l.05-.15-.16-.85h.6z" fill="#3a414a"/><path d="M633.32 380.52h-.56l.07-.17-.17-.88h.66zm-.6-1l.16.83-.04.13h.43v-.96z" stroke="#3a414a" stroke-width=".05" fill="#3a414a"/><path d="M734.6 220l-14.27 4.64v-9.28z" fill="#3a414a"/><path d="M736.2 220l-16.37 5.32v-10.64zm-15.37 3.95l12.15-3.95-12.15-3.95z" stroke="#3a414a" stroke-width=".05" fill="#3a414a"/><use xlink:href="#F" transform="matrix(1,0,0,1,669.1912782021591,289.3333333333333) translate(0 14.222222222222223)"/><path d="M444.64 373.93l.77 2.84 1.97 1.96 2.84.77h34.5v1h-34.63l-3.22-.87-2.34-2.34-.86-3.23v-12.62h1zm0-33.8h-1v-43.25h1z" stroke="#3a414a" stroke-width=".05" fill="#3a414a"/><path d="M485.15 379.65l.16.85h-.6v-1h.5z" fill="#3a414a"/><path d="M485.17 379.65l.17.88h-.66v-1.05h.56zm-.44-.13v.96h.55l-.16-.83.05-.13z" stroke="#3a414a" stroke-width=".05" fill="#3a414a"/><path d="M448.78 296.38h-9.28l4.64-14.26z" fill="#3a414a"/><path d="M449.46 296.88h-10.64l5.32-16.38zm-9.27-1h7.9l-3.96-12.14z" stroke="#3a414a" stroke-width=".05" fill="#3a414a"/><use xlink:href="#G" transform="matrix(1,0,0,1,432.3375111182143,340.12016093163356) translate(0 14.222222222222223)"/><path d="M1395.78 323.7c2.6-2.04 6.82-2.04 9.42 0l66.68 52.6c2.6 2.04 2.6 5.36 0 7.4l-66.68 52.6c-2.6 2.04-6.82 2.04-9.42 0l-66.7-52.6c-2.6-2.04-2.6-5.36 0-7.4z" stroke="#3a414a" fill="#fff"/><use xlink:href="#E" transform="matrix(1,0,0,1,1329.3791908996543,325) translate(23.16549382716049 59.02777777777778)"/><path d="M1543.36 374.07l-.87 3.22-2.35 2.33-3.22.87h-62.16v-1h62.03l2.83-.77 1.97-1.96.76-2.84v-63.26h1zm51.7-153.57h-46.13l-2.83.77-1.97 1.96-.77 2.84v63.26h-1v-63.4l.88-3.22 2.34-2.33 3.22-.87h46.27z" stroke="#3a414a" stroke-width=".05" fill="#3a414a"/><path d="M1474.8 380.5h-.5l.04-.15-.16-.85h.6z" fill="#3a414a"/><path d="M1474.8 380.52h-.55l.06-.17-.15-.88h.66zm-.6-1l.17.83-.05.13h.44v-.96z" stroke="#3a414a" stroke-width=".05" fill="#3a414a"/><path d="M1609.84 220l-14.27 4.64v-9.28z" fill="#3a414a"/><path d="M1611.46 220l-16.4 5.32v-10.64zm-15.4 3.95l12.16-3.95-12.15-3.95z" stroke="#3a414a" stroke-width=".05" fill="#3a414a"/><use xlink:href="#F" transform="matrix(1,0,0,1,1527.556346197343,289.3333333333333) translate(0 14.222222222222223)"/><path d="M1310.65 373.93l.76 2.84 1.98 1.96 2.83.77h10v1h-10.12l-3.22-.87-2.34-2.34-.87-3.23V349.2h1zm0-46.07h-1v-30.98h1z" stroke="#3a414a" stroke-width=".05" fill="#3a414a"/><path d="M1326.63 379.65l.16.85h-.6v-1h.5z" fill="#3a414a"/><path d="M1326.66 379.65l.17.88h-.67v-1.05h.56zm-.45-.13v.96h.56l-.15-.83.05-.13z" stroke="#3a414a" stroke-width=".05" fill="#3a414a"/><path d="M1314.78 296.38h-9.27l4.65-14.26z" fill="#3a414a"/><path d="M1315.47 296.88h-10.65l5.33-16.38zm-9.27-1h7.9l-3.95-12.14z" stroke="#3a414a" stroke-width=".05" fill="#3a414a"/><use xlink:href="#G" transform="matrix(1,0,0,1,1298.3443124320488,327.8602066482784) translate(0 14.222222222222223)"/><path d="M1400.53 281v19.74c0 .22.17.4.4.4.2 0 .38.17.38.4v3.85" stroke="#3a414a" fill="none"/><path d="M1401.03 281h-1v-.5h1z" stroke="#3a414a" stroke-width=".05" fill="#3a414a"/><path d="M1401.3 320.15l-4.62-14.26h9.27z" stroke="#3a414a" fill="#3a414a"/><path d="M1626.43 165.8c.85-3.2 4.23-5.8 7.54-5.8h165.3c3.3 0 5.3 2.6 4.45 5.8l-28.9 108.4c-.86 3.2-4.24 5.8-7.55 5.8h-165.3c-3.3 0-5.3-2.6-4.45-5.8z" stroke="#3a414a" fill="#fff"/><use xlink:href="#H" transform="matrix(1,0,0,1,1600.973379233611,165) translate(26.091419753086424 45.27777777777778)"/><use xlink:href="#I" transform="matrix(1,0,0,1,1600.973379233611,165) translate(60.412407407407414 45.27777777777778)"/><use xlink:href="#J" transform="matrix(1,0,0,1,1600.973379233611,165) translate(97.44944444444445 45.27777777777778)"/><use xlink:href="#K" transform="matrix(1,0,0,1,1600.973379233611,165) translate(140.53586419753088 45.27777777777778)"/><use xlink:href="#L" transform="matrix(1,0,0,1,1600.973379233611,165) translate(16.838333333333317 71.94444444444446)"/><use xlink:href="#M" transform="matrix(1,0,0,1,1600.973379233611,165) translate(111.03586419753086 71.94444444444446)"/><path d="M844.1 281v233c0 3.3 2.7 6 6 6h131.8" stroke="#3a414a" fill="none"/><path d="M844.6 281h-1v-.5h1z" stroke="#3a414a" stroke-width=".05" fill="#3a414a"/><path d="M996.68 520l-14.27 4.64v-9.28z" stroke="#3a414a" fill="#3a414a"/><path d="M1013.26 465.8c.86-3.2 4.24-5.8 7.55-5.8h203.36c3.32 0 5.3 2.6 4.46 5.8l-28.9 108.4c-.87 3.2-4.24 5.8-7.56 5.8H988.8c-3.3 0-5.3-2.6-4.44-5.8z" stroke="#3a414a" fill="#fff"/><use xlink:href="#N" transform="matrix(1,0,0,1,987.8108108108108,465) translate(59.22104938271605 59.02777777777778)"/><use xlink:href="#u" transform="matrix(1,0,0,1,987.8108108108108,465) translate(140.57907407407407 59.02777777777778)"/><path d="M1215.18 520h52.13" stroke="#3a414a" fill="none"/><path d="M1215.2 520.5h-.65l.26-1h.4z" stroke="#3a414a" stroke-width=".05" fill="#3a414a"/><path d="M1282.08 520l-14.27 4.64v-9.28z" stroke="#3a414a" fill="#3a414a"/><path d="M1298.67 465.8c.85-3.2 4.23-5.8 7.55-5.8h203.35c3.3 0 5.3 2.6 4.45 5.8l-28.9 108.4c-.86 3.2-4.24 5.8-7.55 5.8h-203.35c-3.32 0-5.3-2.6-4.46-5.8z" stroke="#3a414a" fill="#fff"/><use xlink:href="#N" transform="matrix(1,0,0,1,1273.2162162162163,465) translate(37.208703703703705 31.52777777777778)"/><use xlink:href="#v" transform="matrix(1,0,0,1,1273.2162162162163,465) translate(118.56672839506172 31.52777777777778)"/><use xlink:href="#w" transform="matrix(1,0,0,1,1273.2162162162163,465) translate(183.9370987654321 31.52777777777778)"/><use xlink:href="#x" transform="matrix(1,0,0,1,1273.2162162162163,465) translate(25.98030864197529 58.19444444444445)"/><use xlink:href="#y" transform="matrix(1,0,0,1,1273.2162162162163,465) translate(65.36302469135802 58.19444444444445)"/><use xlink:href="#z" transform="matrix(1,0,0,1,1273.2162162162163,465) translate(113.51117283950616 58.19444444444445)"/><use xlink:href="#A" transform="matrix(1,0,0,1,1273.2162162162163,465) translate(166.53586419753086 58.19444444444445)"/><use xlink:href="#B" transform="matrix(1,0,0,1,1273.2162162162163,465) translate(191.22722222222222 58.19444444444445)"/><use xlink:href="#C" transform="matrix(1,0,0,1,1273.2162162162163,465) translate(29.474135802469142 84.86111111111111)"/><use xlink:href="#l" transform="matrix(1,0,0,1,1273.2162162162163,465) translate(75.0296913580247 84.86111111111111)"/><use xlink:href="#D" transform="matrix(1,0,0,1,1273.2162162162163,465) translate(124.28895061728396 84.86111111111111)"/><path d="M1372.45 623.7c2.6-2.04 6.82-2.04 9.42 0l66.7 52.6c2.6 2.04 2.6 5.36 0 7.4l-66.7 52.6c-2.6 2.04-6.82 2.04-9.42 0l-66.68-52.6c-2.6-2.04-2.6-5.36 0-7.4z" stroke="#3a414a" fill="#fff"/><use xlink:href="#E" transform="matrix(1,0,0,1,1306.0544603146923,625) translate(23.16549382716049 59.02777777777778)"/><path d="M1520.04 674.07l-.87 3.22-2.34 2.33-3.22.87h-62.15v-1h62.02l2.84-.77 1.97-1.96.77-2.84v-63.26h1zm51.7-153.57h-46.13l-2.83.77-1.96 1.96-.76 2.84v63.26h-1v-63.4l.87-3.22 2.35-2.33 3.22-.87h46.28z" stroke="#3a414a" stroke-width=".05" fill="#3a414a"/><path d="M1451.46 680.5h-.5l.06-.15-.17-.85h.6z" fill="#3a414a"/><path d="M1451.5 680.52h-.57l.06-.17-.18-.88h.67zm-.6-1l.14.83-.04.13h.44v-.96z" stroke="#3a414a" stroke-width=".05" fill="#3a414a"/><path d="M1586.5 520l-14.25 4.64v-9.28z" fill="#3a414a"/><path d="M1588.13 520l-16.38 5.32v-10.64zm-15.38 3.95l12.15-3.95-12.15-3.95z" stroke="#3a414a" stroke-width=".05" fill="#3a414a"/><use xlink:href="#F" transform="matrix(1,0,0,1,1504.2316156123807,589.3333333333333) translate(0 14.222222222222223)"/><path d="M1287.32 673.93l.77 2.84 1.95 1.96 2.84.77h9.98v1h-10.12l-3.23-.87-2.34-2.34-.88-3.23V649.2h1zm0-46.07h-1v-30.98h1z" stroke="#3a414a" stroke-width=".05" fill="#3a414a"/><path d="M1303.3 679.65l.17.85h-.6v-1h.5z" fill="#3a414a"/><path d="M1303.34 679.65l.16.88h-.66v-1.05h.56zm-.45-.13v.96h.54l-.16-.83.05-.13z" stroke="#3a414a" stroke-width=".05" fill="#3a414a"/><path d="M1291.46 596.38h-9.27l4.62-14.26z" fill="#3a414a"/><path d="M1292.15 596.88h-10.65l5.32-16.38zm-9.28-1h7.9l-3.95-12.14z" stroke="#3a414a" stroke-width=".05" fill="#3a414a"/><use xlink:href="#G" transform="matrix(1,0,0,1,1275.0195818470863,627.8602066482787) translate(0 14.222222222222223)"/><path d="M1377.2 581v19.74c0 .22.18.4.4.4.2 0 .4.17.4.4v3.85" stroke="#3a414a" fill="none"/><path d="M1377.7 581h-1v-.5h1z" stroke="#3a414a" stroke-width=".05" fill="#3a414a"/><path d="M1378 620.15l-4.65-14.26h9.27z" stroke="#3a414a" fill="#3a414a"/><path d="M1603.1 465.8c.86-3.2 4.23-5.8 7.55-5.8h165.3c3.3 0 5.3 2.6 4.45 5.8l-28.9 108.4c-.86 3.2-4.24 5.8-7.55 5.8h-165.3c-3.32 0-5.3-2.6-4.46-5.8z" stroke="#3a414a" fill="#fff"/><use xlink:href="#H" transform="matrix(1,0,0,1,1577.6486486486488,465) translate(26.091419753086424 45.27777777777778)"/><use xlink:href="#I" transform="matrix(1,0,0,1,1577.6486486486488,465) translate(60.412407407407414 45.27777777777778)"/><use xlink:href="#J" transform="matrix(1,0,0,1,1577.6486486486488,465) translate(97.44944444444445 45.27777777777778)"/><use xlink:href="#K" transform="matrix(1,0,0,1,1577.6486486486488,465) translate(140.53586419753088 45.27777777777778)"/><use xlink:href="#O" transform="matrix(1,0,0,1,1577.6486486486488,465) translate(16.838333333333317 71.94444444444446)"/><use xlink:href="#M" transform="matrix(1,0,0,1,1577.6486486486488,465) translate(111.03586419753086 71.94444444444446)"/><path d="M328.77 40c27.33 0 49.47 17.9 49.47 40s-22.14 40-49.47 40h-148.4c-27.33 0-49.48-17.9-49.48-40s22.14-40 49.46-40z" stroke="#3a414a" fill="#fff"/><use xlink:href="#P" transform="matrix(1,0,0,1,135.89229815253,45) translate(95.57407407407408 39.65277777777778)"/><path d="M254.57 121v18.56c0 .24.2.44.44.44.26 0 .46.2.46.44v2.68" stroke="#3a414a" fill="none"/><path d="M255.07 121h-1v-.5h1z" stroke="#3a414a" stroke-width=".05" fill="#3a414a"/><path d="M255.46 157.88l-4.64-14.26h9.27z" stroke="#3a414a" fill="#3a414a"/><path d="M967.77 802.33c3.05-1.3 8-1.3 11.06 0l131.64 55.34c3.05 1.3 3.05 3.37 0 4.66l-131.64 55.34c-3.06 1.3-8 1.3-11.06 0l-131.64-55.34c-3.06-1.3-3.06-3.37 0-4.66z" stroke="#3a414a" fill="#fff"/><use xlink:href="#Q" transform="matrix(1,0,0,1,835.5945945945946,805) translate(65.90623456790124 45.27777777777778)"/><use xlink:href="#R" transform="matrix(1,0,0,1,835.5945945945946,805) translate(134.9803086419753 45.27777777777778)"/><use xlink:href="#S" transform="matrix(1,0,0,1,835.5945945945946,805) translate(72.6654938271605 71.94444444444446)"/><path d="M1803.75 520.37l2.34 2.34.86 3.23v328.14l-.87 3.22-2.35 2.33-3.22.87h-671.05v-1h670.92l2.83-.77 1.97-1.96.76-2.84V526.07l-.76-2.84-1.97-1.96-2.83-.77h-33.44v-1h33.57z" stroke="#3a414a" stroke-width=".05" fill="#3a414a"/><path d="M1766.98 520.5h-.65l.27-1h.38z" fill="#3a414a"/><path d="M1767 520.52h-.7l.28-1.04h.42zm-.38-1l-.26.96h.6v-.96z" stroke="#3a414a" stroke-width=".05" fill="#3a414a"/><path d="M1128.98 864.64L1114.7 860l14.28-4.64z" fill="#3a414a"/><path d="M1129.48 865.32l-16.4-5.32 16.4-5.32zm-13.15-5.32l12.15 3.95v-7.9z" stroke="#3a414a" stroke-width=".05" fill="#3a414a"/><path d="M1817.3 220.37l2.33 2.34.87 3.23v628.14l-.87 3.22-2.34 2.33-3.23.87h-684.6v-1h684.46l2.84-.77 1.96-1.96.77-2.84V226.07l-.77-2.84-1.96-1.96-2.84-.77h-23.64v-1h23.77z" stroke="#3a414a" stroke-width=".05" fill="#3a414a"/><path d="M1790.3 220.5h-.65l.27-1h.38z" fill="#3a414a"/><path d="M1790.33 220.53h-.7l.27-1.06h.43zm-.4-1l-.24.94h.58v-.94z" stroke="#3a414a" stroke-width=".05" fill="#3a414a"/><path d="M1128.98 864.64L1114.7 860l14.28-4.64z" fill="#3a414a"/><path d="M1129.48 865.32l-16.4-5.32 16.4-5.32zm-13.15-5.32l12.15 3.95v-7.9z" stroke="#3a414a" stroke-width=".05" fill="#3a414a"/><path d="M748.96 662.33c3.05-1.3 8-1.3 11.06 0l131.64 55.34c3.05 1.3 3.05 3.37 0 4.66l-131.64 55.34c-3.06 1.3-8 1.3-11.06 0L617.3 722.33c-3.04-1.3-3.04-3.37 0-4.66z" stroke="#3a414a" fill="#fff"/><g><use xlink:href="#T" transform="matrix(1,0,0,1,616.7837837837839,665) translate(43.708703703703705 59.02777777777778)"/><use xlink:href="#U" transform="matrix(1,0,0,1,616.7837837837839,665) translate(105.74574074074073 59.02777777777778)"/><use xlink:href="#V" transform="matrix(1,0,0,1,616.7837837837839,665) translate(143.83216049382716 59.02777777777778)"/></g><path d="M976.77 960.63v22.5h-1v-22.3l-.26-.6h1.1zm-2.97-21.75h-1v-19.4h1z" stroke="#3a414a" stroke-width=".05" fill="#3a414a"/><path d="M973.8 919.5h-1v-.5h1z" fill="#3a414a"/><path d="M973.82 919.53h-1.05v-.56h1.05zm-1-.52v.48h.95V919z" stroke="#3a414a" stroke-width=".05" fill="#3a414a"/><path d="M976.27 997.88l-4.64-14.26h9.27z" fill="#3a414a"/><path d="M976.27 999.5l-5.33-16.38h10.65zm-3.95-15.38l3.95 12.14 3.95-12.14z" stroke="#3a414a" stroke-width=".05" fill="#3a414a"/><g><use xlink:href="#F" transform="matrix(1,0,0,1,957.9886553219886,938.8839802474666) translate(0 14.222222222222223)"/></g><path d="M833 859.5v1h-66.7v-1zm-78-11.16h-1v-52.97h1z" stroke="#3a414a" stroke-width=".05" fill="#3a414a"/><path d="M833.25 860.46l-.26.04v-1h.77z" fill="#3a414a"/><path d="M833.26 860.5l-.3.03v-1.05h.86zm-.25-.98v.95l.23-.03.5-.92z" stroke="#3a414a" stroke-width=".05" fill="#3a414a"/><path d="M759.12 794.87h-9.27l4.64-14.26z" fill="#3a414a"/><path d="M759.8 795.37h-10.64L754.5 779zm-9.26-1h7.9l-3.95-12.15z" stroke="#3a414a" stroke-width=".05" fill="#3a414a"/><g><use xlink:href="#G" transform="matrix(1,0,0,1,742.6840173506841,848.3350536048499) translate(0 14.222222222222223)"/></g><path d="M755 660.5h-1V481.43h1zm-.26-200.4h-1V296.87h1z" stroke="#3a414a" stroke-width=".05" fill="#3a414a"/><path d="M755 661h-1v-.5h1z" fill="#3a414a"/><path d="M755 661.03h-1.04v-.56H755zm-1-.5v.46h.96v-.48z" stroke="#3a414a" stroke-width=".05" fill="#3a414a"/><path d="M758.88 296.38h-9.27l4.64-14.26z" fill="#3a414a"/><path d="M759.57 296.88h-10.65l5.32-16.38zm-9.27-1h7.9l-3.96-12.14z" stroke="#3a414a" stroke-width=".05" fill="#3a414a"/><g><use xlink:href="#F" transform="matrix(1,0,0,1,739.0567092821249,460.0895621420721) translate(0 14.222222222222223)"/></g><path d="M880.08 1005.8c.85-3.2 4.23-5.8 7.54-5.8h241.4c3.32 0 5.3 2.6 4.46 5.8l-28.9 108.4c-.86 3.2-4.24 5.8-7.55 5.8h-241.4c-3.32 0-5.32-2.6-4.46-5.8z" stroke="#3a414a" fill="#fff"/><g><use xlink:href="#W" transform="matrix(1,0,0,1,854.6216216216217,1005) translate(36.7766049382716 45.27777777777778)"/><use xlink:href="#I" transform="matrix(1,0,0,1,854.6216216216217,1005) translate(142.94944444444445 45.27777777777778)"/><use xlink:href="#X" transform="matrix(1,0,0,1,854.6216216216217,1005) translate(179.9864814814815 45.27777777777778)"/><use xlink:href="#i" transform="matrix(1,0,0,1,854.6216216216217,1005) translate(32.276604938271596 71.94444444444446)"/><use xlink:href="#Y" transform="matrix(1,0,0,1,854.6216216216217,1005) translate(75.48648148148148 71.94444444444446)"/><use xlink:href="#Z" transform="matrix(1,0,0,1,854.6216216216217,1005) translate(124.74574074074073 71.94444444444446)"/></g><path d="M986.8 1162.33c3.05-1.3 8-1.3 11.06 0l131.64 55.34c3.05 1.3 3.05 3.37 0 4.66l-131.64 55.34c-3.06 1.3-8 1.3-11.07 0l-131.65-55.34c-3.05-1.3-3.05-3.37 0-4.66z" stroke="#3a414a" fill="#fff"/><g><use xlink:href="#a" transform="matrix(1,0,0,1,854.6216216216217,1165) translate(70.19635802469136 45.27777777777778)"/><use xlink:href="#aa" transform="matrix(1,0,0,1,854.6216216216217,1165) translate(123.15932098765433 45.27777777777778)"/><use xlink:href="#n" transform="matrix(1,0,0,1,854.6216216216217,1165) translate(187.29512345679012 45.27777777777778)"/><use xlink:href="#o" transform="matrix(1,0,0,1,854.6216216216217,1165) translate(87.44944444444445 71.94444444444446)"/><use xlink:href="#ab" transform="matrix(1,0,0,1,854.6216216216217,1165) translate(134.3012962962963 71.94444444444446)"/></g><path d="M991.45 1121v19.32c0 .24.2.44.44.44.23 0 .42.2.42.43v3.43" stroke="#3a414a" fill="none"/><path d="M991.95 1121h-1v-.5h1z" stroke="#3a414a" stroke-width=".05" fill="#3a414a"/><path d="M992.32 1159.4l-4.63-14.27h9.26z" stroke="#3a414a" fill="#3a414a"/><path d="M130 220.5H66.06l-2.84.77-1.96 1.96-.77 2.84v987.86l.77 2.84 1.96 1.96 2.84.77h701.07v1H65.94l-3.23-.87-2.33-2.34-.87-3.23V225.93l.87-3.22 2.34-2.33 3.23-.87H130zm722.03 999v1h-54.27v-1z" stroke="#3a414a" stroke-width=".05" fill="#3a414a"/><path d="M852.28 1220.46l-.26.04v-1h.78z" fill="#3a414a"/><path d="M852.3 1220.5l-.3.03v-1.06h.84zm-.26-.97v.94l.22-.03.5-.9z" stroke="#3a414a" stroke-width=".05" fill="#3a414a"/><path d="M144.76 220l-14.27 4.64v-9.28z" fill="#3a414a"/><path d="M146.37 220L130 225.32v-10.64zM131 223.95l12.14-3.95-12.15-3.95z" stroke="#3a414a" stroke-width=".05" fill="#3a414a"/><g><use xlink:href="#F" transform="matrix(1,0,0,1,767.1427424365789,1209.3333333333333) translate(0 14.222222222222223)"/></g><path d="M1169.1 1220.5h-36.48v-1h36.47zm44.18 0h-20.6v-1h20.6z" stroke="#3a414a" stroke-width=".05" fill="#3a414a"/><path d="M1132.63 1220.5h-.78l.52-.96.26-.04z" fill="#3a414a"/><path d="M1132.66 1220.53h-.86l.56-1.02.3-.03zm-.27-.97l-.5.9h.7v-.93z" stroke="#3a414a" stroke-width=".05" fill="#3a414a"/><path d="M1228.04 1220l-14.26 4.64v-9.28z" fill="#3a414a"/><path d="M1229.66 1220l-16.38 5.32v-10.64zm-15.38 3.95l12.15-3.95-12.15-3.95z" stroke="#3a414a" stroke-width=".05" fill="#3a414a"/><g><use xlink:href="#G" transform="matrix(1,0,0,1,1169.088075273951,1209.3333333333333) translate(0 14.222222222222223)"/></g><path d="M1351.94 1180c16.8 0 30.44 17.9 30.44 40s-13.63 40-30.44 40h-91.33c-16.8 0-30.44-17.9-30.44-40s13.63-40 30.45-40z" stroke="#3a414a" fill="#fff"/><g><use xlink:href="#ac" transform="matrix(1,0,0,1,1235.162162162162,1185) translate(20.913580246913583 39.65277777777778)"/><use xlink:href="#ad" transform="matrix(1,0,0,1,1235.162162162162,1185) translate(66.5925925925926 39.65277777777778)"/></g><path d="M575.2 1151.08l.76 2.84 1.96 1.96 2.84.77h316l3.2.87 2.36 2.34.87 3.22v17.68h-1v-17.55l-.78-2.82-1.96-1.97-2.84-.75h-316l-3.22-.88-2.34-2.34-.87-3.22V732.68h1zm39-430.58h-27.7v-1h27.7z" stroke="#3a414a" stroke-width=".05" fill="#3a414a"/><path d="M614.44 720.46l-.26.04v-1h.78z" fill="#3a414a"/><path d="M614.45 720.5l-.3.03v-1.05h.86zm-.25-.98v.95l.22-.03.5-.92z" stroke="#3a414a" stroke-width=".05" fill="#3a414a"/><path d="M902.7 1195.53l-4.65-14.27h9.27z" fill="#3a414a"/><path d="M902.7 1197.15l-5.34-16.4H908zm-3.96-15.4l3.95 12.16 3.93-12.14z" stroke="#3a414a" stroke-width=".05" fill="#3a414a"/><g><use xlink:href="#G" transform="matrix(1,0,0,1,562.8891047023648,711.3333333333334) translate(0 14.222222222222223)"/></g><defs><path fill="#3a414a" d="M232-93c-1 65-40 97-104 97C67 4 28-28 28-90v-158h33c8 89-33 224 67 224 102 0 64-133 71-224h33v155" id="ae"/><path fill="#3a414a" d="M135-143c-3-34-86-38-87 0 15 53 115 12 119 90S17 21 10-45l28-5c4 36 97 45 98 0-10-56-113-15-118-90-4-57 82-63 122-42 12 7 21 19 24 35" id="af"/><path fill="#3a414a" d="M100-194c63 0 86 42 84 106H49c0 40 14 67 53 68 26 1 43-12 49-29l28 8c-11 28-37 45-77 45C44 4 14-33 15-96c1-61 26-98 85-98zm52 81c6-60-76-77-97-28-3 7-6 17-6 28h103" id="ag"/><path fill="#3a414a" d="M114-163C36-179 61-72 57 0H25l-1-190h30c1 12-1 29 2 39 6-27 23-49 58-41v29" id="ah"/><g id="a"><use transform="matrix(0.06172839506172839,0,0,0.06172839506172839,0,0)" xlink:href="#ae"/><use transform="matrix(0.06172839506172839,0,0,0.06172839506172839,15.987654320987653,0)" xlink:href="#af"/><use transform="matrix(0.06172839506172839,0,0,0.06172839506172839,27.098765432098766,0)" xlink:href="#ag"/><use transform="matrix(0.06172839506172839,0,0,0.06172839506172839,39.44444444444444,0)" xlink:href="#ah"/></g><path fill="#3a414a" d="M85-194c31 0 48 13 60 33l-1-100h32l1 261h-30c-2-10 0-23-3-31C134-8 116 4 85 4 32 4 16-35 15-94c0-66 23-100 70-100zm9 24c-40 0-46 34-46 75 0 40 6 74 45 74 42 0 51-32 51-76 0-42-9-74-50-73" id="ai"/><path fill="#3a414a" d="M101-234c-31-9-42 10-38 44h38v23H63V0H32v-167H5v-23h27c-7-52 17-82 69-68v24" id="aj"/><path fill="#3a414a" d="M24-231v-30h32v30H24zM24 0v-190h32V0H24" id="ak"/><path fill="#3a414a" d="M117-194c89-4 53 116 60 194h-32v-121c0-31-8-49-39-48C34-167 62-67 57 0H25l-1-190h30c1 10-1 24 2 32 11-22 29-35 61-36" id="al"/><g id="b"><use transform="matrix(0.06172839506172839,0,0,0.06172839506172839,0,0)" xlink:href="#ai"/><use transform="matrix(0.06172839506172839,0,0,0.06172839506172839,12.345679012345679,0)" xlink:href="#ag"/><use transform="matrix(0.06172839506172839,0,0,0.06172839506172839,24.691358024691358,0)" xlink:href="#aj"/><use transform="matrix(0.06172839506172839,0,0,0.06172839506172839,30.864197530864196,0)" xlink:href="#ak"/><use transform="matrix(0.06172839506172839,0,0,0.06172839506172839,35.74074074074074,0)" xlink:href="#al"/><use transform="matrix(0.06172839506172839,0,0,0.06172839506172839,48.08641975308642,0)" xlink:href="#ag"/><use transform="matrix(0.06172839506172839,0,0,0.06172839506172839,60.432098765432094,0)" xlink:href="#af"/></g><path fill="#3a414a" d="M177-190C167-65 218 103 67 71c-23-6-38-20-44-43l32-5c15 47 100 32 89-28v-30C133-14 115 1 83 1 29 1 15-40 15-95c0-56 16-97 71-98 29-1 48 16 59 35 1-10 0-23 2-32h30zM94-22c36 0 50-32 50-73 0-42-14-75-50-75-39 0-46 34-46 75s6 73 46 73" id="am"/><path fill="#3a414a" d="M141-36C126-15 110 5 73 4 37 3 15-17 15-53c-1-64 63-63 125-63 3-35-9-54-41-54-24 1-41 7-42 31l-33-3c5-37 33-52 76-52 45 0 72 20 72 64v82c-1 20 7 32 28 27v20c-31 9-61-2-59-35zM48-53c0 20 12 33 32 33 41-3 63-29 60-74-43 2-92-5-92 41" id="an"/><path fill="#3a414a" d="M210-169c-67 3-38 105-44 169h-31v-121c0-29-5-50-35-48C34-165 62-65 56 0H25l-1-190h30c1 10-1 24 2 32 10-44 99-50 107 0 11-21 27-35 58-36 85-2 47 119 55 194h-31v-121c0-29-5-49-35-48" id="ao"/><g id="c"><use transform="matrix(0.06172839506172839,0,0,0.06172839506172839,0,0)" xlink:href="#am"/><use transform="matrix(0.06172839506172839,0,0,0.06172839506172839,12.345679012345679,0)" xlink:href="#an"/><use transform="matrix(0.06172839506172839,0,0,0.06172839506172839,24.691358024691358,0)" xlink:href="#ao"/><use transform="matrix(0.06172839506172839,0,0,0.06172839506172839,43.148148148148145,0)" xlink:href="#ag"/></g><path fill="#3a414a" d="M100-194c62-1 85 37 85 99 1 63-27 99-86 99S16-35 15-95c0-66 28-99 85-99zM99-20c44 1 53-31 53-75 0-43-8-75-51-75s-53 32-53 75 10 74 51 75" id="ap"/><path fill="#3a414a" d="M33-154v-36h34v36H33zM33 0v-36h34V0H33" id="aq"/><g id="d"><use transform="matrix(0.06172839506172839,0,0,0.06172839506172839,0,0)" xlink:href="#ao"/><use transform="matrix(0.06172839506172839,0,0,0.06172839506172839,18.456790123456788,0)" xlink:href="#ap"/><use transform="matrix(0.06172839506172839,0,0,0.06172839506172839,30.80246913580247,0)" xlink:href="#ai"/><use transform="matrix(0.06172839506172839,0,0,0.06172839506172839,43.148148148148145,0)" xlink:href="#ag"/><use transform="matrix(0.06172839506172839,0,0,0.06172839506172839,55.49382716049382,0)" xlink:href="#aq"/></g><path fill="#3a414a" d="M27 0v-27h64v-190l-56 39v-29l58-41h29v221h61V0H27" id="ar"/><path fill="#3a414a" d="M108 0H70L1-190h34L89-25l56-165h34" id="as"/><g id="e"><use transform="matrix(0.06172839506172839,0,0,0.06172839506172839,0,0)" xlink:href="#ar"/><use transform="matrix(0.06172839506172839,0,0,0.06172839506172839,12.345679012345679,0)" xlink:href="#as"/><use transform="matrix(0.06172839506172839,0,0,0.06172839506172839,23.45679012345679,0)" xlink:href="#ar"/></g><g id="f"><use transform="matrix(0.06172839506172839,0,0,0.06172839506172839,0,0)" xlink:href="#ap"/><use transform="matrix(0.06172839506172839,0,0,0.06172839506172839,12.345679012345679,0)" xlink:href="#ah"/></g><path fill="#3a414a" d="M30-248c87 1 191-15 191 75 0 78-77 80-158 76V0H30v-248zm33 125c57 0 124 11 124-50 0-59-68-47-124-48v98" id="at"/><path fill="#3a414a" d="M212-179c-10-28-35-45-73-45-59 0-87 40-87 99 0 60 29 101 89 101 43 0 62-24 78-52l27 14C228-24 195 4 139 4 59 4 22-46 18-125c-6-104 99-153 187-111 19 9 31 26 39 46" id="au"/><g id="g"><use transform="matrix(0.06172839506172839,0,0,0.06172839506172839,0,0)" xlink:href="#ar"/><use transform="matrix(0.06172839506172839,0,0,0.06172839506172839,12.345679012345679,0)" xlink:href="#as"/><use transform="matrix(0.06172839506172839,0,0,0.06172839506172839,23.45679012345679,0)" xlink:href="#at"/><use transform="matrix(0.06172839506172839,0,0,0.06172839506172839,38.27160493827161,0)" xlink:href="#au"/></g><path fill="#3a414a" d="M24 0v-261h32V0H24" id="av"/><path fill="#3a414a" d="M179-190L93 31C79 59 56 82 12 73V49c39 6 53-20 64-50L1-190h34L92-34l54-156h33" id="aw"/><g id="h"><use transform="matrix(0.06172839506172839,0,0,0.06172839506172839,0,0)" xlink:href="#at"/><use transform="matrix(0.06172839506172839,0,0,0.06172839506172839,14.814814814814813,0)" xlink:href="#av"/><use transform="matrix(0.06172839506172839,0,0,0.06172839506172839,19.691358024691354,0)" xlink:href="#an"/><use transform="matrix(0.06172839506172839,0,0,0.06172839506172839,32.03703703703703,0)" xlink:href="#aw"/><use transform="matrix(0.06172839506172839,0,0,0.06172839506172839,43.14814814814814,0)" xlink:href="#ag"/><use transform="matrix(0.06172839506172839,0,0,0.06172839506172839,55.493827160493815,0)" xlink:href="#ah"/><use transform="matrix(0.06172839506172839,0,0,0.06172839506172839,62.83950617283949,0)" xlink:href="#ar"/></g><g id="i"><use transform="matrix(0.06172839506172839,0,0,0.06172839506172839,0,0)" xlink:href="#an"/><use transform="matrix(0.06172839506172839,0,0,0.06172839506172839,12.345679012345679,0)" xlink:href="#al"/><use transform="matrix(0.06172839506172839,0,0,0.06172839506172839,24.691358024691358,0)" xlink:href="#ai"/></g><path fill="#3a414a" d="M101-251c82-7 93 87 43 132L82-64C71-53 59-42 53-27h129V0H18c2-99 128-94 128-182 0-28-16-43-45-43s-46 15-49 41l-32-3c6-41 34-60 81-64" id="ax"/><g id="j"><use transform="matrix(0.06172839506172839,0,0,0.06172839506172839,0,0)" xlink:href="#at"/><use transform="matrix(0.06172839506172839,0,0,0.06172839506172839,14.814814814814813,0)" xlink:href="#av"/><use transform="matrix(0.06172839506172839,0,0,0.06172839506172839,19.691358024691354,0)" xlink:href="#an"/><use transform="matrix(0.06172839506172839,0,0,0.06172839506172839,32.03703703703703,0)" xlink:href="#aw"/><use transform="matrix(0.06172839506172839,0,0,0.06172839506172839,43.14814814814814,0)" xlink:href="#ag"/><use transform="matrix(0.06172839506172839,0,0,0.06172839506172839,55.493827160493815,0)" xlink:href="#ah"/><use transform="matrix(0.06172839506172839,0,0,0.06172839506172839,62.83950617283949,0)" xlink:href="#ax"/></g><path fill="#3a414a" d="M115-194c55 1 70 41 70 98S169 2 115 4C84 4 66-9 55-30l1 105H24l-1-265h31l2 30c10-21 28-34 59-34zm-8 174c40 0 45-34 45-75s-6-73-45-74c-42 0-51 32-51 76 0 43 10 73 51 73" id="ay"/><path fill="#3a414a" d="M96-169c-40 0-48 33-48 73s9 75 48 75c24 0 41-14 43-38l32 2c-6 37-31 61-74 61-59 0-76-41-82-99-10-93 101-131 147-64 4 7 5 14 7 22l-32 3c-4-21-16-35-41-35" id="az"/><path fill="#3a414a" d="M143 0L79-87 56-68V0H24v-261h32v163l83-92h37l-77 82L181 0h-38" id="aA"/><g id="k"><use transform="matrix(0.06172839506172839,0,0,0.06172839506172839,0,0)" xlink:href="#ay"/><use transform="matrix(0.06172839506172839,0,0,0.06172839506172839,12.345679012345679,0)" xlink:href="#ak"/><use transform="matrix(0.06172839506172839,0,0,0.06172839506172839,17.22222222222222,0)" xlink:href="#az"/><use transform="matrix(0.06172839506172839,0,0,0.06172839506172839,28.333333333333332,0)" xlink:href="#aA"/></g><path fill="#3a414a" d="M59-47c-2 24 18 29 38 22v24C64 9 27 4 27-40v-127H5v-23h24l9-43h21v43h35v23H59v120" id="aB"/><path fill="#3a414a" d="M106-169C34-169 62-67 57 0H25v-261h32l-1 103c12-21 28-36 61-36 89 0 53 116 60 194h-32v-121c2-32-8-49-39-48" id="aC"/><g id="l"><use transform="matrix(0.06172839506172839,0,0,0.06172839506172839,0,0)" xlink:href="#aB"/><use transform="matrix(0.06172839506172839,0,0,0.06172839506172839,6.172839506172839,0)" xlink:href="#aC"/><use transform="matrix(0.06172839506172839,0,0,0.06172839506172839,18.51851851851852,0)" xlink:href="#ag"/><use transform="matrix(0.06172839506172839,0,0,0.06172839506172839,30.864197530864196,0)" xlink:href="#ak"/><use transform="matrix(0.06172839506172839,0,0,0.06172839506172839,35.74074074074074,0)" xlink:href="#ah"/></g><path fill="#3a414a" d="M115-194c53 0 69 39 70 98 0 66-23 100-70 100C84 3 66-7 56-30L54 0H23l1-261h32v101c10-23 28-34 59-34zm-8 174c40 0 45-34 45-75 0-40-5-75-45-74-42 0-51 32-51 76 0 43 10 73 51 73" id="aD"/><g id="m"><use transform="matrix(0.06172839506172839,0,0,0.06172839506172839,0,0)" xlink:href="#af"/><use transform="matrix(0.06172839506172839,0,0,0.06172839506172839,11.11111111111111,0)" xlink:href="#aw"/><use transform="matrix(0.06172839506172839,0,0,0.06172839506172839,22.22222222222222,0)" xlink:href="#ao"/><use transform="matrix(0.06172839506172839,0,0,0.06172839506172839,40.67901234567901,0)" xlink:href="#aD"/><use transform="matrix(0.06172839506172839,0,0,0.06172839506172839,53.02469135802469,0)" xlink:href="#ap"/><use transform="matrix(0.06172839506172839,0,0,0.06172839506172839,65.37037037037037,0)" xlink:href="#av"/><use transform="matrix(0.06172839506172839,0,0,0.06172839506172839,70.24691358024691,0)" xlink:href="#af"/></g><g id="n"><use transform="matrix(0.06172839506172839,0,0,0.06172839506172839,0,0)" xlink:href="#aB"/><use transform="matrix(0.06172839506172839,0,0,0.06172839506172839,6.172839506172839,0)" xlink:href="#ap"/></g><g id="o"><use transform="matrix(0.06172839506172839,0,0,0.06172839506172839,0,0)" xlink:href="#ay"/><use transform="matrix(0.06172839506172839,0,0,0.06172839506172839,12.345679012345679,0)" xlink:href="#av"/><use transform="matrix(0.06172839506172839,0,0,0.06172839506172839,17.22222222222222,0)" xlink:href="#an"/><use transform="matrix(0.06172839506172839,0,0,0.06172839506172839,29.5679012345679,0)" xlink:href="#aw"/></g><path fill="#3a414a" d="M206 0h-36l-40-164L89 0H53L-1-190h32L70-26l43-164h34l41 164 42-164h31" id="aE"/><g id="p"><use transform="matrix(0.06172839506172839,0,0,0.06172839506172839,0,0)" xlink:href="#aE"/><use transform="matrix(0.06172839506172839,0,0,0.06172839506172839,15.987654320987653,0)" xlink:href="#ak"/><use transform="matrix(0.06172839506172839,0,0,0.06172839506172839,20.864197530864196,0)" xlink:href="#aB"/><use transform="matrix(0.06172839506172839,0,0,0.06172839506172839,27.037037037037035,0)" xlink:href="#aC"/></g><path fill="#3a414a" d="M143 4C61 4 22-44 18-125c-5-107 100-154 193-111 17 8 29 25 37 43l-32 9c-13-25-37-40-76-40-61 0-88 39-88 99 0 61 29 100 91 101 35 0 62-11 79-27v-45h-74v-28h105v86C228-13 192 4 143 4" id="aF"/><g id="q"><use transform="matrix(0.06172839506172839,0,0,0.06172839506172839,0,0)" xlink:href="#aF"/><use transform="matrix(0.06172839506172839,0,0,0.06172839506172839,17.28395061728395,0)" xlink:href="#an"/><use transform="matrix(0.06172839506172839,0,0,0.06172839506172839,29.629629629629626,0)" xlink:href="#ao"/><use transform="matrix(0.06172839506172839,0,0,0.06172839506172839,48.08641975308642,0)" xlink:href="#ag"/></g><g id="r"><use transform="matrix(0.06172839506172839,0,0,0.06172839506172839,0,0)" xlink:href="#av"/><use transform="matrix(0.06172839506172839,0,0,0.06172839506172839,4.876543209876543,0)" xlink:href="#ap"/><use transform="matrix(0.06172839506172839,0,0,0.06172839506172839,17.22222222222222,0)" xlink:href="#ap"/><use transform="matrix(0.06172839506172839,0,0,0.06172839506172839,29.5679012345679,0)" xlink:href="#ay"/></g><g id="s"><use transform="matrix(0.06172839506172839,0,0,0.06172839506172839,0,0)" xlink:href="#af"/><use transform="matrix(0.06172839506172839,0,0,0.06172839506172839,11.11111111111111,0)" xlink:href="#aB"/><use transform="matrix(0.06172839506172839,0,0,0.06172839506172839,17.28395061728395,0)" xlink:href="#an"/><use transform="matrix(0.06172839506172839,0,0,0.06172839506172839,29.629629629629626,0)" xlink:href="#ah"/><use transform="matrix(0.06172839506172839,0,0,0.06172839506172839,36.9753086419753,0)" xlink:href="#aB"/><use transform="matrix(0.06172839506172839,0,0,0.06172839506172839,43.148148148148145,0)" xlink:href="#af"/></g><path fill="#3a414a" d="M141 0L90-78 38 0H4l68-98-65-92h35l48 74 47-74h35l-64 92 68 98h-35" id="aG"/><path fill="#3a414a" d="M99-251c64 0 84 50 84 122C183-37 130 33 47-8c-14-7-20-23-25-40l30-5c6 39 69 39 84 7 9-19 16-44 16-74-10 22-31 35-62 35-49 0-73-33-73-83 0-54 28-83 82-83zm-1 141c31-1 51-18 51-49 0-36-14-67-51-67-34 0-49 23-49 58 0 34 15 58 49 58" id="aH"/><g id="t"><use transform="matrix(0.06172839506172839,0,0,0.06172839506172839,0,0)" xlink:href="#aG"/><use transform="matrix(0.06172839506172839,0,0,0.06172839506172839,11.11111111111111,0)" xlink:href="#aH"/></g><path fill="#3a414a" d="M84 4C-5 8 30-112 23-190h32v120c0 31 7 50 39 49 72-2 45-101 50-169h31l1 190h-30c-1-10 1-25-2-33-11 22-28 36-60 37" id="aI"/><g id="u"><use transform="matrix(0.06172839506172839,0,0,0.06172839506172839,0,0)" xlink:href="#aB"/><use transform="matrix(0.06172839506172839,0,0,0.06172839506172839,6.172839506172839,0)" xlink:href="#aI"/><use transform="matrix(0.06172839506172839,0,0,0.06172839506172839,18.51851851851852,0)" xlink:href="#ah"/><use transform="matrix(0.06172839506172839,0,0,0.06172839506172839,25.864197530864196,0)" xlink:href="#al"/></g><g id="v"><use transform="matrix(0.06172839506172839,0,0,0.06172839506172839,0,0)" xlink:href="#ak"/><use transform="matrix(0.06172839506172839,0,0,0.06172839506172839,4.876543209876543,0)" xlink:href="#al"/><use transform="matrix(0.06172839506172839,0,0,0.06172839506172839,17.22222222222222,0)" xlink:href="#ay"/><use transform="matrix(0.06172839506172839,0,0,0.06172839506172839,29.5679012345679,0)" xlink:href="#aI"/><use transform="matrix(0.06172839506172839,0,0,0.06172839506172839,41.913580246913575,0)" xlink:href="#aB"/><use transform="matrix(0.06172839506172839,0,0,0.06172839506172839,48.08641975308642,0)" xlink:href="#af"/></g><g id="w"><use transform="matrix(0.06172839506172839,0,0,0.06172839506172839,0,0)" xlink:href="#aB"/><use transform="matrix(0.06172839506172839,0,0,0.06172839506172839,6.172839506172839,0)" xlink:href="#aC"/><use transform="matrix(0.06172839506172839,0,0,0.06172839506172839,18.51851851851852,0)" xlink:href="#ag"/></g><g id="x"><use transform="matrix(0.06172839506172839,0,0,0.06172839506172839,0,0)" xlink:href="#az"/><use transform="matrix(0.06172839506172839,0,0,0.06172839506172839,11.11111111111111,0)" xlink:href="#ag"/><use transform="matrix(0.06172839506172839,0,0,0.06172839506172839,23.45679012345679,0)" xlink:href="#av"/><use transform="matrix(0.06172839506172839,0,0,0.06172839506172839,28.333333333333336,0)" xlink:href="#av"/></g><g id="y"><use transform="matrix(0.06172839506172839,0,0,0.06172839506172839,0,0)" xlink:href="#aB"/><use transform="matrix(0.06172839506172839,0,0,0.06172839506172839,6.172839506172839,0)" xlink:href="#aC"/><use transform="matrix(0.06172839506172839,0,0,0.06172839506172839,18.51851851851852,0)" xlink:href="#ag"/><use transform="matrix(0.06172839506172839,0,0,0.06172839506172839,30.864197530864196,0)" xlink:href="#aw"/></g><g id="z"><use transform="matrix(0.06172839506172839,0,0,0.06172839506172839,0,0)" xlink:href="#aE"/><use transform="matrix(0.06172839506172839,0,0,0.06172839506172839,15.987654320987653,0)" xlink:href="#an"/><use transform="matrix(0.06172839506172839,0,0,0.06172839506172839,28.333333333333332,0)" xlink:href="#al"/><use transform="matrix(0.06172839506172839,0,0,0.06172839506172839,40.67901234567901,0)" xlink:href="#aB"/></g><g id="A"><use transform="matrix(0.06172839506172839,0,0,0.06172839506172839,0,0)" xlink:href="#aB"/><use transform="matrix(0.06172839506172839,0,0,0.06172839506172839,6.172839506172839,0)" xlink:href="#ap"/></g><g id="B"><use transform="matrix(0.06172839506172839,0,0,0.06172839506172839,0,0)" xlink:href="#aj"/><use transform="matrix(0.06172839506172839,0,0,0.06172839506172839,6.172839506172839,0)" xlink:href="#ak"/><use transform="matrix(0.06172839506172839,0,0,0.06172839506172839,11.049382716049383,0)" xlink:href="#av"/><use transform="matrix(0.06172839506172839,0,0,0.06172839506172839,15.925925925925926,0)" xlink:href="#av"/></g><g id="C"><use transform="matrix(0.06172839506172839,0,0,0.06172839506172839,0,0)" xlink:href="#aE"/><use transform="matrix(0.06172839506172839,0,0,0.06172839506172839,15.987654320987653,0)" xlink:href="#ak"/><use transform="matrix(0.06172839506172839,0,0,0.06172839506172839,20.864197530864196,0)" xlink:href="#aB"/><use transform="matrix(0.06172839506172839,0,0,0.06172839506172839,27.037037037037035,0)" xlink:href="#aC"/></g><g id="D"><use transform="matrix(0.06172839506172839,0,0,0.06172839506172839,0,0)" xlink:href="#af"/><use transform="matrix(0.06172839506172839,0,0,0.06172839506172839,11.11111111111111,0)" xlink:href="#aw"/><use transform="matrix(0.06172839506172839,0,0,0.06172839506172839,22.22222222222222,0)" xlink:href="#ao"/><use transform="matrix(0.06172839506172839,0,0,0.06172839506172839,40.67901234567901,0)" xlink:href="#aD"/><use transform="matrix(0.06172839506172839,0,0,0.06172839506172839,53.02469135802469,0)" xlink:href="#ap"/><use transform="matrix(0.06172839506172839,0,0,0.06172839506172839,65.37037037037037,0)" xlink:href="#av"/></g><path fill="#3a414a" d="M137 0h-34L2-248h35l83 218 83-218h36" id="aJ"/><g id="E"><use transform="matrix(0.06172839506172839,0,0,0.06172839506172839,0,0)" xlink:href="#aJ"/><use transform="matrix(0.06172839506172839,0,0,0.06172839506172839,13.148148148148147,0)" xlink:href="#an"/><use transform="matrix(0.06172839506172839,0,0,0.06172839506172839,25.493827160493826,0)" xlink:href="#av"/><use transform="matrix(0.06172839506172839,0,0,0.06172839506172839,30.370370370370367,0)" xlink:href="#ak"/><use transform="matrix(0.06172839506172839,0,0,0.06172839506172839,35.24691358024691,0)" xlink:href="#ai"/><use transform="matrix(0.06172839506172839,0,0,0.06172839506172839,47.59259259259259,0)" xlink:href="#an"/><use transform="matrix(0.06172839506172839,0,0,0.06172839506172839,59.938271604938265,0)" xlink:href="#aB"/><use transform="matrix(0.06172839506172839,0,0,0.06172839506172839,66.1111111111111,0)" xlink:href="#ak"/><use transform="matrix(0.06172839506172839,0,0,0.06172839506172839,70.98765432098764,0)" xlink:href="#ap"/><use transform="matrix(0.06172839506172839,0,0,0.06172839506172839,83.33333333333333,0)" xlink:href="#al"/></g><path fill="#333" d="M146-102V0H94v-102L6-248h54l60 105 60-105h54" id="aK"/><path fill="#333" d="M185-48c-13 30-37 53-82 52C43 2 14-33 14-96s30-98 90-98c62 0 83 45 84 108H66c0 31 8 55 39 56 18 0 30-7 34-22zm-45-69c5-46-57-63-70-21-2 6-4 13-4 21h74" id="aL"/><path fill="#333" d="M137-138c1-29-70-34-71-4 15 46 118 7 119 86 1 83-164 76-172 9l43-7c4 19 20 25 44 25 33 8 57-30 24-41C81-84 22-81 20-136c-2-80 154-74 161-7" id="aM"/><g id="F"><use transform="matrix(0.04938271604938272,0,0,0.04938271604938272,0,0)" xlink:href="#aK"/><use transform="matrix(0.04938271604938272,0,0,0.04938271604938272,10.864197530864198,0)" xlink:href="#aL"/><use transform="matrix(0.04938271604938272,0,0,0.04938271604938272,20.74074074074074,0)" xlink:href="#aM"/></g><path fill="#333" d="M175 0L67-191c6 58 2 128 3 191H24v-248h59L193-55c-6-58-2-129-3-193h46V0h-61" id="aN"/><path fill="#333" d="M110-194c64 0 96 36 96 99 0 64-35 99-97 99-61 0-95-36-95-99 0-62 34-99 96-99zm-1 164c35 0 45-28 45-65 0-40-10-65-43-65-34 0-45 26-45 65 0 36 10 65 43 65" id="aO"/><g id="G"><use transform="matrix(0.04938271604938272,0,0,0.04938271604938272,0,0)" xlink:href="#aN"/><use transform="matrix(0.04938271604938272,0,0,0.04938271604938272,12.790123456790125,0)" xlink:href="#aO"/></g><path fill="#3a414a" d="M63-220v92h138v28H63V0H30v-248h175v28H63" id="aP"/><g id="H"><use transform="matrix(0.06172839506172839,0,0,0.06172839506172839,0,0)" xlink:href="#aP"/><use transform="matrix(0.06172839506172839,0,0,0.06172839506172839,13.518518518518517,0)" xlink:href="#ak"/><use transform="matrix(0.06172839506172839,0,0,0.06172839506172839,18.39506172839506,0)" xlink:href="#av"/><use transform="matrix(0.06172839506172839,0,0,0.06172839506172839,23.2716049382716,0)" xlink:href="#av"/></g><g id="I"><use transform="matrix(0.06172839506172839,0,0,0.06172839506172839,0,0)" xlink:href="#aB"/><use transform="matrix(0.06172839506172839,0,0,0.06172839506172839,6.172839506172839,0)" xlink:href="#aC"/><use transform="matrix(0.06172839506172839,0,0,0.06172839506172839,18.51851851851852,0)" xlink:href="#ag"/></g><g id="J"><use transform="matrix(0.06172839506172839,0,0,0.06172839506172839,0,0)" xlink:href="#am"/><use transform="matrix(0.06172839506172839,0,0,0.06172839506172839,12.345679012345679,0)" xlink:href="#ah"/><use transform="matrix(0.06172839506172839,0,0,0.06172839506172839,19.691358024691358,0)" xlink:href="#ak"/><use transform="matrix(0.06172839506172839,0,0,0.06172839506172839,24.5679012345679,0)" xlink:href="#ai"/></g><g id="K"><use transform="matrix(0.06172839506172839,0,0,0.06172839506172839,0,0)" xlink:href="#aE"/><use transform="matrix(0.06172839506172839,0,0,0.06172839506172839,15.987654320987653,0)" xlink:href="#ak"/><use transform="matrix(0.06172839506172839,0,0,0.06172839506172839,20.864197530864196,0)" xlink:href="#aB"/><use transform="matrix(0.06172839506172839,0,0,0.06172839506172839,27.037037037037035,0)" xlink:href="#aC"/></g><path fill="#3a414a" d="M47-170H22l-4-78h33" id="aQ"/><g id="L"><use transform="matrix(0.06172839506172839,0,0,0.06172839506172839,0,0)" xlink:href="#ay"/><use transform="matrix(0.06172839506172839,0,0,0.06172839506172839,12.345679012345679,0)" xlink:href="#av"/><use transform="matrix(0.06172839506172839,0,0,0.06172839506172839,17.22222222222222,0)" xlink:href="#an"/><use transform="matrix(0.06172839506172839,0,0,0.06172839506172839,29.5679012345679,0)" xlink:href="#aw"/><use transform="matrix(0.06172839506172839,0,0,0.06172839506172839,40.67901234567901,0)" xlink:href="#ag"/><use transform="matrix(0.06172839506172839,0,0,0.06172839506172839,53.02469135802469,0)" xlink:href="#ah"/><use transform="matrix(0.06172839506172839,0,0,0.06172839506172839,60.37037037037037,0)" xlink:href="#ar"/><use transform="matrix(0.06172839506172839,0,0,0.06172839506172839,72.71604938271605,0)" xlink:href="#aQ"/><use transform="matrix(0.06172839506172839,0,0,0.06172839506172839,76.91358024691358,0)" xlink:href="#af"/></g><g id="M"><use transform="matrix(0.06172839506172839,0,0,0.06172839506172839,0,0)" xlink:href="#az"/><use transform="matrix(0.06172839506172839,0,0,0.06172839506172839,11.11111111111111,0)" xlink:href="#aC"/><use transform="matrix(0.06172839506172839,0,0,0.06172839506172839,23.45679012345679,0)" xlink:href="#ap"/><use transform="matrix(0.06172839506172839,0,0,0.06172839506172839,35.80246913580247,0)" xlink:href="#ak"/><use transform="matrix(0.06172839506172839,0,0,0.06172839506172839,40.67901234567901,0)" xlink:href="#az"/><use transform="matrix(0.06172839506172839,0,0,0.06172839506172839,51.79012345679013,0)" xlink:href="#ag"/></g><g id="N"><use transform="matrix(0.06172839506172839,0,0,0.06172839506172839,0,0)" xlink:href="#at"/><use transform="matrix(0.06172839506172839,0,0,0.06172839506172839,14.814814814814813,0)" xlink:href="#av"/><use transform="matrix(0.06172839506172839,0,0,0.06172839506172839,19.691358024691354,0)" xlink:href="#an"/><use transform="matrix(0.06172839506172839,0,0,0.06172839506172839,32.03703703703703,0)" xlink:href="#aw"/><use transform="matrix(0.06172839506172839,0,0,0.06172839506172839,43.14814814814814,0)" xlink:href="#ag"/><use transform="matrix(0.06172839506172839,0,0,0.06172839506172839,55.493827160493815,0)" xlink:href="#ah"/><use transform="matrix(0.06172839506172839,0,0,0.06172839506172839,62.83950617283949,0)" xlink:href="#ax"/></g><g id="O"><use transform="matrix(0.06172839506172839,0,0,0.06172839506172839,0,0)" xlink:href="#ay"/><use transform="matrix(0.06172839506172839,0,0,0.06172839506172839,12.345679012345679,0)" xlink:href="#av"/><use transform="matrix(0.06172839506172839,0,0,0.06172839506172839,17.22222222222222,0)" xlink:href="#an"/><use transform="matrix(0.06172839506172839,0,0,0.06172839506172839,29.5679012345679,0)" xlink:href="#aw"/><use transform="matrix(0.06172839506172839,0,0,0.06172839506172839,40.67901234567901,0)" xlink:href="#ag"/><use transform="matrix(0.06172839506172839,0,0,0.06172839506172839,53.02469135802469,0)" xlink:href="#ah"/><use transform="matrix(0.06172839506172839,0,0,0.06172839506172839,60.37037037037037,0)" xlink:href="#ax"/><use transform="matrix(0.06172839506172839,0,0,0.06172839506172839,72.71604938271605,0)" xlink:href="#aQ"/><use transform="matrix(0.06172839506172839,0,0,0.06172839506172839,76.91358024691358,0)" xlink:href="#af"/></g><path fill="#3a414a" d="M185-189c-5-48-123-54-124 2 14 75 158 14 163 119 3 78-121 87-175 55-17-10-28-26-33-46l33-7c5 56 141 63 141-1 0-78-155-14-162-118-5-82 145-84 179-34 5 7 8 16 11 25" id="aR"/><g id="P"><use transform="matrix(0.06172839506172839,0,0,0.06172839506172839,0,0)" xlink:href="#aR"/><use transform="matrix(0.06172839506172839,0,0,0.06172839506172839,14.814814814814813,0)" xlink:href="#aB"/><use transform="matrix(0.06172839506172839,0,0,0.06172839506172839,20.98765432098765,0)" xlink:href="#an"/><use transform="matrix(0.06172839506172839,0,0,0.06172839506172839,33.33333333333333,0)" xlink:href="#ah"/><use transform="matrix(0.06172839506172839,0,0,0.06172839506172839,40.679012345679006,0)" xlink:href="#aB"/></g><g id="Q"><use transform="matrix(0.06172839506172839,0,0,0.06172839506172839,0,0)" xlink:href="#au"/><use transform="matrix(0.06172839506172839,0,0,0.06172839506172839,15.987654320987653,0)" xlink:href="#aC"/><use transform="matrix(0.06172839506172839,0,0,0.06172839506172839,28.333333333333332,0)" xlink:href="#ag"/><use transform="matrix(0.06172839506172839,0,0,0.06172839506172839,40.67901234567901,0)" xlink:href="#az"/><use transform="matrix(0.06172839506172839,0,0,0.06172839506172839,51.79012345679013,0)" xlink:href="#aA"/></g><g id="R"><use transform="matrix(0.06172839506172839,0,0,0.06172839506172839,0,0)" xlink:href="#aE"/><use transform="matrix(0.06172839506172839,0,0,0.06172839506172839,15.987654320987653,0)" xlink:href="#ak"/><use transform="matrix(0.06172839506172839,0,0,0.06172839506172839,20.864197530864196,0)" xlink:href="#al"/><use transform="matrix(0.06172839506172839,0,0,0.06172839506172839,33.20987654320987,0)" xlink:href="#al"/><use transform="matrix(0.06172839506172839,0,0,0.06172839506172839,45.55555555555555,0)" xlink:href="#ak"/><use transform="matrix(0.06172839506172839,0,0,0.06172839506172839,50.432098765432094,0)" xlink:href="#al"/><use transform="matrix(0.06172839506172839,0,0,0.06172839506172839,62.77777777777777,0)" xlink:href="#am"/></g><g id="S"><use transform="matrix(0.06172839506172839,0,0,0.06172839506172839,0,0)" xlink:href="#az"/><use transform="matrix(0.06172839506172839,0,0,0.06172839506172839,11.11111111111111,0)" xlink:href="#ap"/><use transform="matrix(0.06172839506172839,0,0,0.06172839506172839,23.45679012345679,0)" xlink:href="#ao"/><use transform="matrix(0.06172839506172839,0,0,0.06172839506172839,41.91358024691358,0)" xlink:href="#aD"/><use transform="matrix(0.06172839506172839,0,0,0.06172839506172839,54.25925925925926,0)" xlink:href="#ak"/><use transform="matrix(0.06172839506172839,0,0,0.06172839506172839,59.135802469135804,0)" xlink:href="#al"/><use transform="matrix(0.06172839506172839,0,0,0.06172839506172839,71.48148148148148,0)" xlink:href="#an"/><use transform="matrix(0.06172839506172839,0,0,0.06172839506172839,83.82716049382717,0)" xlink:href="#aB"/><use transform="matrix(0.06172839506172839,0,0,0.06172839506172839,90,0)" xlink:href="#ak"/><use transform="matrix(0.06172839506172839,0,0,0.06172839506172839,94.87654320987654,0)" xlink:href="#ap"/><use transform="matrix(0.06172839506172839,0,0,0.06172839506172839,107.22222222222223,0)" xlink:href="#al"/><use transform="matrix(0.06172839506172839,0,0,0.06172839506172839,119.56790123456791,0)" xlink:href="#af"/></g><path fill="#3a414a" d="M127-220V0H93v-220H8v-28h204v28h-85" id="aS"/><g id="T"><use transform="matrix(0.06172839506172839,0,0,0.06172839506172839,0,0)" xlink:href="#aS"/><use transform="matrix(0.06172839506172839,0,0,0.06172839506172839,12.716049382716047,0)" xlink:href="#aI"/><use transform="matrix(0.06172839506172839,0,0,0.06172839506172839,25.061728395061728,0)" xlink:href="#ah"/><use transform="matrix(0.06172839506172839,0,0,0.06172839506172839,32.407407407407405,0)" xlink:href="#al"/><use transform="matrix(0.06172839506172839,0,0,0.06172839506172839,44.75308641975308,0)" xlink:href="#af"/></g><g id="U"><use transform="matrix(0.06172839506172839,0,0,0.06172839506172839,0,0)" xlink:href="#af"/><use transform="matrix(0.06172839506172839,0,0,0.06172839506172839,11.11111111111111,0)" xlink:href="#aB"/><use transform="matrix(0.06172839506172839,0,0,0.06172839506172839,17.28395061728395,0)" xlink:href="#ak"/><use transform="matrix(0.06172839506172839,0,0,0.06172839506172839,22.160493827160494,0)" xlink:href="#av"/><use transform="matrix(0.06172839506172839,0,0,0.06172839506172839,27.037037037037038,0)" xlink:href="#av"/></g><g id="V"><use transform="matrix(0.06172839506172839,0,0,0.06172839506172839,0,0)" xlink:href="#an"/><use transform="matrix(0.06172839506172839,0,0,0.06172839506172839,12.345679012345679,0)" xlink:href="#as"/><use transform="matrix(0.06172839506172839,0,0,0.06172839506172839,23.45679012345679,0)" xlink:href="#an"/><use transform="matrix(0.06172839506172839,0,0,0.06172839506172839,35.80246913580247,0)" xlink:href="#ak"/><use transform="matrix(0.06172839506172839,0,0,0.06172839506172839,40.67901234567901,0)" xlink:href="#av"/><use transform="matrix(0.06172839506172839,0,0,0.06172839506172839,45.55555555555556,0)" xlink:href="#an"/><use transform="matrix(0.06172839506172839,0,0,0.06172839506172839,57.901234567901234,0)" xlink:href="#aD"/><use transform="matrix(0.06172839506172839,0,0,0.06172839506172839,70.24691358024691,0)" xlink:href="#av"/><use transform="matrix(0.06172839506172839,0,0,0.06172839506172839,75.12345679012346,0)" xlink:href="#ag"/></g><path fill="#3a414a" d="M205 0l-28-72H64L36 0H1l101-248h38L239 0h-34zm-38-99l-47-123c-12 45-31 82-46 123h93" id="aT"/><g id="W"><use transform="matrix(0.06172839506172839,0,0,0.06172839506172839,0,0)" xlink:href="#aT"/><use transform="matrix(0.06172839506172839,0,0,0.06172839506172839,14.814814814814813,0)" xlink:href="#al"/><use transform="matrix(0.06172839506172839,0,0,0.06172839506172839,27.160493827160494,0)" xlink:href="#al"/><use transform="matrix(0.06172839506172839,0,0,0.06172839506172839,39.50617283950617,0)" xlink:href="#ap"/><use transform="matrix(0.06172839506172839,0,0,0.06172839506172839,51.85185185185185,0)" xlink:href="#aI"/><use transform="matrix(0.06172839506172839,0,0,0.06172839506172839,64.19753086419753,0)" xlink:href="#al"/><use transform="matrix(0.06172839506172839,0,0,0.06172839506172839,76.54320987654322,0)" xlink:href="#az"/><use transform="matrix(0.06172839506172839,0,0,0.06172839506172839,87.65432098765433,0)" xlink:href="#ag"/></g><g id="X"><use transform="matrix(0.06172839506172839,0,0,0.06172839506172839,0,0)" xlink:href="#aE"/><use transform="matrix(0.06172839506172839,0,0,0.06172839506172839,15.987654320987653,0)" xlink:href="#ak"/><use transform="matrix(0.06172839506172839,0,0,0.06172839506172839,20.864197530864196,0)" xlink:href="#al"/><use transform="matrix(0.06172839506172839,0,0,0.06172839506172839,33.20987654320987,0)" xlink:href="#al"/><use transform="matrix(0.06172839506172839,0,0,0.06172839506172839,45.55555555555555,0)" xlink:href="#ag"/><use transform="matrix(0.06172839506172839,0,0,0.06172839506172839,57.90123456790123,0)" xlink:href="#ah"/></g><g id="Y"><use transform="matrix(0.06172839506172839,0,0,0.06172839506172839,0,0)" xlink:href="#ay"/><use transform="matrix(0.06172839506172839,0,0,0.06172839506172839,12.345679012345679,0)" xlink:href="#ah"/><use transform="matrix(0.06172839506172839,0,0,0.06172839506172839,19.691358024691358,0)" xlink:href="#ak"/><use transform="matrix(0.06172839506172839,0,0,0.06172839506172839,24.5679012345679,0)" xlink:href="#al"/><use transform="matrix(0.06172839506172839,0,0,0.06172839506172839,36.913580246913575,0)" xlink:href="#aB"/></g><g id="Z"><use transform="matrix(0.06172839506172839,0,0,0.06172839506172839,0,0)" xlink:href="#af"/><use transform="matrix(0.06172839506172839,0,0,0.06172839506172839,11.11111111111111,0)" xlink:href="#az"/><use transform="matrix(0.06172839506172839,0,0,0.06172839506172839,22.22222222222222,0)" xlink:href="#ap"/><use transform="matrix(0.06172839506172839,0,0,0.06172839506172839,34.5679012345679,0)" xlink:href="#ah"/><use transform="matrix(0.06172839506172839,0,0,0.06172839506172839,41.913580246913575,0)" xlink:href="#ag"/><use transform="matrix(0.06172839506172839,0,0,0.06172839506172839,54.25925925925925,0)" xlink:href="#aD"/><use transform="matrix(0.06172839506172839,0,0,0.06172839506172839,66.60493827160494,0)" xlink:href="#ap"/><use transform="matrix(0.06172839506172839,0,0,0.06172839506172839,78.95061728395062,0)" xlink:href="#an"/><use transform="matrix(0.06172839506172839,0,0,0.06172839506172839,91.2962962962963,0)" xlink:href="#ah"/><use transform="matrix(0.06172839506172839,0,0,0.06172839506172839,98.64197530864199,0)" xlink:href="#ai"/></g><g id="aa"><use transform="matrix(0.06172839506172839,0,0,0.06172839506172839,0,0)" xlink:href="#aE"/><use transform="matrix(0.06172839506172839,0,0,0.06172839506172839,15.987654320987653,0)" xlink:href="#an"/><use transform="matrix(0.06172839506172839,0,0,0.06172839506172839,28.333333333333332,0)" xlink:href="#al"/><use transform="matrix(0.06172839506172839,0,0,0.06172839506172839,40.67901234567901,0)" xlink:href="#aB"/><use transform="matrix(0.06172839506172839,0,0,0.06172839506172839,46.851851851851855,0)" xlink:href="#af"/></g><g id="ab"><use transform="matrix(0.06172839506172839,0,0,0.06172839506172839,0,0)" xlink:href="#an"/><use transform="matrix(0.06172839506172839,0,0,0.06172839506172839,12.345679012345679,0)" xlink:href="#am"/><use transform="matrix(0.06172839506172839,0,0,0.06172839506172839,24.691358024691358,0)" xlink:href="#an"/><use transform="matrix(0.06172839506172839,0,0,0.06172839506172839,37.03703703703704,0)" xlink:href="#ak"/><use transform="matrix(0.06172839506172839,0,0,0.06172839506172839,41.91358024691358,0)" xlink:href="#al"/></g><path fill="#3a414a" d="M30 0v-248h187v28H63v79h144v27H63v87h162V0H30" id="aU"/><g id="ac"><use transform="matrix(0.06172839506172839,0,0,0.06172839506172839,0,0)" xlink:href="#aU"/><use transform="matrix(0.06172839506172839,0,0,0.06172839506172839,14.814814814814813,0)" xlink:href="#al"/><use transform="matrix(0.06172839506172839,0,0,0.06172839506172839,27.160493827160494,0)" xlink:href="#ai"/></g><g id="ad"><use transform="matrix(0.06172839506172839,0,0,0.06172839506172839,0,0)" xlink:href="#am"/><use transform="matrix(0.06172839506172839,0,0,0.06172839506172839,12.345679012345679,0)" xlink:href="#an"/><use transform="matrix(0.06172839506172839,0,0,0.06172839506172839,24.691358024691358,0)" xlink:href="#ao"/><use transform="matrix(0.06172839506172839,0,0,0.06172839506172839,43.148148148148145,0)" xlink:href="#ag"/></g></defs></g></svg>